<?xml version="1.0" encoding="UTF-8" ?>
<!DOCTYPE svg PUBLIC "-//W3C//DTD SVG 1.1//EN" "http://www.w3.org/Graphics/SVG/1.1/DTD/svg11.dtd">
<svg width="8396pt" height="2361pt" viewBox="0 0 8396 2361" version="1.1" xmlns="http://www.w3.org/2000/svg">
<g id="#3db6bfff">
<path fill="#3db6bf" opacity="1.00" d=" M 936.84 24.81 C 999.80 12.13 1063.77 4.61 1127.92 1.65 C 1227.72 -3.00 1328.21 4.00 1426.11 24.28 C 1511.20 41.85 1594.19 69.47 1672.90 106.26 C 1787.68 159.92 1893.23 232.61 1986.34 318.40 C 1940.52 377.16 1894.70 435.93 1848.90 494.71 C 1792.65 440.11 1729.74 392.39 1661.97 353.00 C 1504.37 261.33 1320.33 214.87 1138.05 223.42 C 991.75 230.03 847.36 271.44 719.16 342.10 C 628.01 392.20 544.99 457.05 474.32 533.35 C 419.29 483.64 364.24 433.94 309.05 384.40 C 362.04 326.33 420.58 273.32 483.66 226.38 C 549.03 177.77 619.53 136.02 693.82 102.57 C 771.52 67.51 853.28 41.57 936.84 24.81 Z" />
<path fill="#3db6bf" opacity="1.00" d=" M 1087.39 489.16 C 1187.71 477.46 1290.55 485.32 1387.36 514.48 C 1501.88 548.68 1607.47 613.00 1689.30 700.22 C 1643.04 759.90 1596.92 819.70 1550.88 879.55 C 1504.53 820.59 1442.47 774.52 1373.40 745.55 C 1329.81 727.18 1283.70 714.77 1236.82 708.52 C 1145.99 696.46 1051.60 711.57 969.53 752.48 C 917.53 778.17 870.45 813.78 831.46 856.70 C 776.21 806.63 721.16 756.33 665.88 706.29 C 742.04 624.54 837.66 560.82 942.93 523.17 C 989.60 506.48 1038.14 494.91 1087.39 489.16 Z" />
<path fill="#3db6bf" opacity="1.00" d=" M 1151.65 946.83 C 1195.36 942.18 1240.37 949.87 1279.89 969.19 C 1312.37 984.94 1341.13 1008.28 1363.26 1036.80 C 1385.63 1065.49 1401.25 1099.44 1408.31 1135.14 C 1417.17 1179.26 1413.23 1225.93 1396.77 1267.84 C 1383.08 1302.94 1360.79 1334.62 1332.46 1359.43 C 1305.01 1383.55 1271.91 1401.23 1236.52 1410.39 C 1193.97 1421.49 1148.33 1420.49 1106.35 1407.40 C 1067.64 1395.42 1032.20 1373.15 1004.49 1343.60 C 977.68 1315.14 958.06 1279.94 948.18 1242.10 C 936.01 1195.82 938.17 1145.82 954.62 1100.86 C 967.46 1065.42 989.06 1033.27 1016.80 1007.77 C 1053.69 973.72 1101.68 951.92 1151.65 946.83 M 1185.01 1024.07 C 1165.15 1027.84 1145.80 1034.84 1128.64 1045.60 C 1099.57 1063.47 1078.21 1091.92 1065.16 1123.12 C 1064.13 1125.44 1063.12 1128.84 1060.02 1128.88 C 1053.68 1129.35 1047.35 1128.61 1041.01 1128.75 C 1027.17 1128.76 1013.34 1128.74 999.50 1128.75 C 999.50 1140.75 999.49 1152.75 999.51 1164.75 C 1017.59 1164.75 1035.67 1164.75 1053.75 1164.76 C 1053.75 1176.83 1053.74 1188.91 1053.76 1200.99 C 1035.75 1201.01 1017.75 1200.99 999.75 1201.00 C 999.75 1212.83 999.75 1224.66 999.75 1236.49 C 1006.47 1236.57 1013.20 1236.31 1019.92 1236.72 C 1033.22 1236.99 1046.53 1236.15 1059.83 1236.59 C 1062.08 1236.62 1063.66 1238.45 1064.32 1240.46 C 1072.91 1263.19 1086.65 1283.99 1104.39 1300.61 C 1134.44 1328.96 1175.69 1345.01 1217.00 1344.51 C 1255.50 1344.48 1293.64 1329.61 1322.28 1303.93 C 1311.96 1293.27 1301.52 1282.71 1291.05 1272.18 C 1281.15 1280.37 1270.10 1287.25 1258.11 1291.92 C 1235.69 1300.90 1210.46 1302.33 1187.06 1296.52 C 1155.04 1288.67 1125.74 1266.96 1112.10 1236.52 C 1146.40 1236.48 1180.69 1236.50 1214.99 1236.51 C 1215.01 1224.59 1214.99 1212.67 1215.00 1200.75 C 1176.53 1200.76 1138.07 1200.73 1099.60 1200.77 C 1097.77 1188.79 1097.61 1176.49 1099.72 1164.54 C 1138.07 1164.41 1176.43 1164.61 1214.79 1164.44 C 1214.70 1152.54 1214.77 1140.65 1214.75 1128.76 C 1180.29 1128.72 1145.82 1128.80 1111.36 1128.72 C 1116.31 1119.57 1122.23 1110.92 1129.20 1103.19 C 1141.89 1088.96 1158.48 1078.36 1176.55 1072.35 C 1198.09 1064.80 1221.90 1063.03 1244.06 1068.95 C 1261.21 1073.39 1277.02 1082.08 1290.93 1092.94 C 1301.46 1082.44 1311.92 1071.88 1322.49 1061.42 C 1303.60 1045.65 1282.01 1032.64 1258.11 1026.19 C 1234.38 1019.48 1209.11 1019.27 1185.01 1024.07 Z" />
</g>
<g id="#124a79ff">
<path fill="#124a79" opacity="1.00" d=" M 3029.08 148.53 C 3101.94 135.45 3176.14 131.83 3250.04 131.50 C 3293.15 131.01 3336.95 137.07 3376.75 154.27 C 3413.32 170.01 3446.10 195.10 3469.57 227.37 C 3493.32 259.72 3506.84 298.66 3512.43 338.17 C 3518.13 380.24 3517.77 423.67 3506.71 464.86 C 3496.43 503.38 3477.43 539.85 3450.08 569.01 C 3425.41 595.75 3394.39 616.59 3360.26 629.22 C 3319.68 643.92 3275.79 645.90 3233.07 644.07 C 3202.68 642.63 3172.30 638.57 3143.00 630.25 C 3143.00 710.66 3142.99 791.07 3143.00 871.48 C 3105.04 871.58 3067.08 871.39 3029.12 871.58 C 3028.84 764.71 3029.08 657.83 3029.00 550.96 C 3029.05 416.81 3028.90 282.67 3029.08 148.53 M 3246.98 241.51 C 3222.01 241.62 3196.97 242.76 3172.23 246.32 C 3162.94 247.91 3153.49 249.44 3144.77 253.16 C 3144.73 339.17 3144.76 425.18 3144.76 511.20 C 3178.55 521.49 3213.71 527.14 3249.00 528.44 C 3268.50 529.41 3288.42 528.64 3307.10 522.43 C 3339.90 511.80 3367.14 485.94 3380.14 454.08 C 3389.16 432.94 3393.00 409.84 3393.26 386.95 C 3393.66 363.92 3391.11 340.55 3383.12 318.84 C 3377.69 303.92 3369.33 290.05 3358.46 278.46 C 3346.09 265.20 3330.23 255.37 3313.09 249.56 C 3291.91 242.27 3269.22 240.65 3246.98 241.51 Z" />
<path fill="#124a79" opacity="1.00" d=" M 3745.43 347.64 C 3790.22 336.09 3836.99 332.66 3883.04 336.65 C 3911.82 339.12 3940.35 344.34 3968.25 351.83 C 3968.26 388.54 3968.22 425.24 3968.27 461.94 C 3924.03 446.45 3876.90 437.62 3829.94 440.87 C 3804.04 442.77 3778.29 448.78 3754.75 459.85 C 3754.76 597.23 3754.74 734.61 3754.76 871.99 C 3717.66 872.00 3680.57 872.03 3643.49 871.97 C 3643.51 712.40 3643.51 552.84 3643.49 393.27 C 3674.12 371.66 3709.21 356.91 3745.43 347.64 Z" />
<path fill="#124a79" opacity="1.00" d=" M 5322.59 335.83 C 5358.08 333.59 5394.13 337.50 5427.91 348.83 C 5458.11 358.86 5486.78 374.14 5510.76 395.19 C 5540.38 421.29 5564.21 454.55 5576.99 492.06 C 5586.67 522.37 5589.46 554.37 5590.67 586.01 C 5591.49 614.88 5590.97 643.85 5587.78 672.57 C 5584.72 699.18 5579.20 725.97 5566.79 749.93 C 5539.64 804.54 5490.55 848.01 5432.84 867.90 C 5402.76 878.35 5370.75 882.58 5338.99 882.26 C 5280.18 881.89 5220.92 862.26 5175.63 824.29 C 5150.46 803.24 5129.87 776.73 5115.84 747.06 C 5100.85 716.30 5096.42 681.76 5094.18 647.99 C 5092.76 624.08 5092.70 600.11 5093.81 576.18 C 5094.94 553.98 5097.17 531.75 5102.13 510.05 C 5108.70 480.28 5123.12 452.66 5141.59 428.57 C 5161.30 403.19 5186.34 382.03 5214.37 366.34 C 5247.41 347.84 5284.90 338.06 5322.59 335.83 M 5320.60 440.76 C 5300.86 443.14 5281.52 449.31 5264.37 459.39 C 5252.52 466.37 5241.39 474.85 5232.65 485.54 C 5222.39 498.11 5215.30 513.00 5210.50 528.43 C 5204.40 548.03 5201.65 568.52 5200.60 588.98 C 5199.61 609.30 5200.01 629.72 5202.40 649.94 C 5204.69 668.93 5208.88 687.84 5216.59 705.41 C 5222.82 719.49 5231.51 732.68 5243.12 742.90 C 5266.26 763.21 5296.26 775.10 5326.88 777.41 C 5359.80 780.09 5394.36 774.58 5422.61 756.72 C 5435.62 748.43 5447.68 738.21 5456.47 725.41 C 5467.40 709.76 5473.97 691.48 5478.07 672.94 C 5481.63 656.55 5483.34 639.79 5483.96 623.04 C 5484.72 602.34 5483.95 581.54 5481.03 561.02 C 5476.98 533.48 5468.53 505.38 5449.99 483.98 C 5439.04 471.65 5425.51 461.67 5410.78 454.31 C 5383.00 440.69 5351.08 437.24 5320.60 440.76 Z" />
<path fill="#124a79" opacity="1.00" d=" M 4211.44 344.51 C 4236.59 337.30 4262.90 334.99 4288.99 335.50 C 4327.13 334.87 4366.32 341.82 4399.51 361.40 C 4428.93 378.49 4452.03 404.92 4468.62 434.35 C 4478.16 451.28 4485.54 469.40 4491.15 487.99 C 4498.67 512.64 4502.15 538.34 4503.67 564.01 C 4505.54 597.19 4504.13 630.48 4500.90 663.53 C 4387.73 663.47 4274.57 663.49 4161.40 663.53 C 4162.83 680.70 4169.22 697.15 4178.35 711.66 C 4188.21 727.65 4201.70 741.47 4217.83 751.17 C 4232.70 760.30 4249.46 766.05 4266.57 769.27 C 4288.11 773.30 4310.19 773.68 4331.99 771.93 C 4355.45 770.00 4378.68 765.30 4401.07 758.02 C 4423.17 750.68 4445.08 742.01 4464.74 729.37 C 4464.74 768.43 4464.80 807.50 4464.71 846.56 C 4405.89 873.46 4340.43 885.01 4275.94 881.97 C 4235.54 879.51 4195.67 867.14 4161.32 845.67 C 4129.42 825.68 4102.34 797.60 4085.22 763.94 C 4066.31 727.55 4057.64 686.70 4054.45 646.07 C 4052.17 615.72 4052.54 585.18 4055.51 554.90 C 4059.61 515.24 4068.89 475.40 4088.48 440.35 C 4104.72 410.93 4129.15 386.43 4157.43 368.45 C 4174.14 357.90 4192.41 349.85 4211.44 344.51 M 4263.94 441.08 C 4245.22 443.09 4226.81 449.40 4211.44 460.38 C 4196.00 471.33 4183.44 486.26 4175.12 503.24 C 4166.23 521.02 4162.01 540.78 4160.50 560.50 C 4237.92 560.49 4315.34 560.52 4392.76 560.48 C 4393.52 539.38 4390.95 517.70 4381.42 498.61 C 4372.82 481.30 4359.86 466.08 4343.85 455.23 C 4328.97 445.19 4310.97 439.95 4293.04 440.24 C 4283.32 440.35 4273.59 439.86 4263.94 441.08 Z" />
<path fill="#124a79" opacity="1.00" d=" M 4770.99 345.96 C 4792.96 339.07 4815.99 335.68 4839.01 335.49 C 4885.79 335.31 4933.20 340.78 4977.20 357.37 C 4977.30 396.12 4977.24 434.87 4977.23 473.62 C 4957.87 463.50 4938.11 453.86 4917.11 447.64 C 4900.57 442.59 4883.25 440.91 4866.07 440.04 C 4843.92 439.08 4821.29 438.55 4799.77 444.72 C 4779.38 450.19 4760.56 461.83 4747.23 478.28 C 4738.20 489.09 4731.75 501.82 4727.25 515.11 C 4719.27 538.53 4716.31 563.32 4715.12 587.93 C 4714.21 612.97 4714.58 638.15 4718.04 663.01 C 4720.52 680.55 4724.47 698.03 4731.60 714.31 C 4739.13 731.75 4751.27 747.29 4766.87 758.22 C 4782.18 769.03 4800.46 775.02 4818.95 777.36 C 4840.89 779.91 4863.09 778.64 4885.05 776.86 C 4918.01 774.27 4948.36 759.70 4977.22 744.56 C 4977.29 783.38 4977.23 822.20 4977.25 861.02 C 4937.49 875.97 4894.87 881.69 4852.59 882.77 C 4846.96 892.92 4841.60 903.23 4836.12 913.46 C 4847.33 913.47 4858.91 915.41 4868.61 921.35 C 4881.19 928.94 4889.67 942.09 4893.51 956.09 C 4898.73 975.36 4897.35 996.15 4890.71 1014.91 C 4885.20 1029.64 4873.83 1041.75 4860.00 1049.07 C 4838.85 1061.03 4813.67 1062.20 4789.98 1060.78 C 4772.62 1059.23 4754.93 1056.90 4738.84 1049.85 C 4744.52 1035.63 4750.27 1021.43 4756.01 1007.23 C 4762.82 1009.69 4769.96 1011.14 4777.07 1012.57 C 4789.77 1014.82 4803.21 1015.76 4815.64 1011.54 C 4824.00 1008.57 4831.99 1003.12 4836.10 995.03 C 4839.89 987.35 4839.18 978.23 4836.48 970.34 C 4832.36 959.40 4822.98 950.57 4811.79 947.20 C 4801.36 943.90 4790.58 941.92 4779.94 939.51 C 4787.54 919.38 4796.69 899.87 4805.18 880.11 C 4768.13 874.71 4732.60 859.75 4702.57 837.45 C 4672.33 815.23 4647.74 785.60 4630.91 752.10 C 4623.06 736.55 4616.74 720.18 4612.80 703.19 C 4606.68 677.56 4604.34 651.20 4603.61 624.91 C 4603.13 599.91 4603.61 574.83 4606.65 549.98 C 4609.11 529.70 4613.14 509.50 4620.26 490.31 C 4632.89 457.19 4652.49 426.65 4677.82 401.81 C 4704.00 376.34 4736.03 356.74 4770.99 345.96 Z" />
<path fill="#124a79" opacity="1.00" d=" M 1920.22 572.30 C 1967.00 512.57 2013.89 452.93 2060.57 393.12 C 2108.45 445.62 2151.62 502.46 2188.83 563.01 C 2251.24 664.14 2296.64 775.50 2324.67 890.92 C 2339.64 952.18 2349.85 1014.58 2355.82 1077.35 C 2365.96 1184.41 2362.57 1292.93 2343.33 1398.82 C 2327.74 1485.22 2301.61 1569.70 2265.86 1649.89 C 2232.97 1723.82 2192.01 1794.07 2144.74 1859.72 C 2100.70 1920.74 2051.78 1978.30 1998.16 2031.12 C 1942.93 2085.40 1882.54 2134.51 1817.58 2176.72 C 1747.85 2222.07 1672.90 2259.39 1594.70 2287.73 C 1460.20 2336.66 1316.78 2358.71 1173.93 2359.50 C 1128.26 2359.83 1082.59 2360.10 1036.91 2360.00 C 1007.63 2360.51 978.34 2360.13 949.05 2360.25 C 913.71 2360.20 878.37 2360.35 843.04 2360.18 C 814.05 2359.77 785.04 2360.11 756.05 2360.00 C 725.03 2360.14 694.02 2359.56 663.00 2359.75 C 630.01 2359.73 597.01 2359.87 564.02 2359.50 C 544.67 2359.34 525.29 2360.00 505.96 2358.72 C 497.98 2358.28 490.00 2357.84 482.02 2357.47 C 481.98 2266.95 482.01 2176.45 482.00 2085.94 C 481.89 2062.96 482.26 2039.97 481.74 2017.01 C 481.76 1905.67 481.74 1794.34 481.75 1683.00 C 481.81 1659.98 481.58 1636.96 482.00 1613.96 C 482.11 1583.96 481.75 1553.95 482.25 1523.96 C 482.22 1467.63 482.75 1411.31 483.00 1354.98 C 482.97 1255.22 481.66 1154.94 496.06 1055.96 C 502.92 1006.71 515.70 958.29 534.24 912.14 C 551.69 868.36 574.23 826.69 600.61 787.66 C 657.35 837.99 713.98 888.48 770.84 938.70 C 749.72 975.20 732.25 1014.13 722.14 1055.18 C 716.84 1076.44 713.20 1098.11 711.03 1119.91 C 708.28 1145.19 708.57 1170.64 708.25 1196.02 C 707.13 1317.67 706.26 1439.31 706.00 1560.97 C 705.59 1586.97 705.80 1612.98 705.76 1638.99 C 705.24 1667.65 705.61 1696.33 705.50 1725.01 C 705.07 1749.66 705.31 1774.32 705.25 1798.98 C 705.38 1824.01 704.81 1849.02 705.00 1874.04 C 705.19 1906.34 704.61 1938.63 704.75 1970.94 C 704.91 1996.97 704.32 2022.99 704.50 2049.02 C 704.69 2070.91 703.91 2092.80 704.35 2114.69 C 704.80 2122.51 706.83 2131.65 714.24 2135.79 C 723.98 2141.09 735.44 2138.71 746.01 2138.99 C 840.00 2137.87 933.96 2140.21 1027.94 2140.50 C 1096.34 2140.27 1164.82 2139.03 1233.03 2133.31 C 1288.11 2128.80 1343.00 2121.48 1397.06 2109.93 C 1496.10 2088.92 1592.60 2054.09 1680.32 2003.24 C 1751.26 1962.31 1816.19 1910.96 1872.30 1851.30 C 1933.21 1786.74 1983.66 1712.65 2023.68 1633.51 C 2046.05 1589.34 2065.26 1543.60 2081.60 1496.87 C 2099.58 1445.96 2113.75 1393.68 2123.27 1340.52 C 2146.60 1211.78 2142.74 1078.13 2111.34 951.08 C 2077.41 812.51 2011.24 682.09 1920.22 572.30 Z" />
<path fill="#124a79" opacity="1.00" d=" M 240.64 465.12 C 296.19 514.86 351.54 564.82 407.14 614.49 C 361.65 676.29 323.68 743.65 294.70 814.71 C 265.05 887.16 245.12 963.48 234.54 1041.01 C 227.17 1094.10 223.79 1147.70 223.34 1201.27 C 223.06 1257.54 222.48 1313.79 222.50 1370.06 C 221.81 1396.01 222.69 1421.99 221.99 1447.95 C 222.01 1473.96 221.99 1499.97 222.00 1525.99 C 221.49 1582.31 221.87 1638.65 221.75 1694.98 C 221.83 1807.30 221.60 1919.63 221.86 2031.94 C 222.18 2128.27 221.91 2224.60 222.00 2320.93 C 221.74 2333.24 220.22 2345.48 219.24 2357.75 C 147.10 2357.75 74.96 2357.75 2.83 2357.75 C 2.36 2350.46 1.83 2343.18 1.32 2335.91 C 0.70 2330.20 1.28 2324.38 0.00 2318.77 L 0.00 1543.58 C 0.77 1539.39 0.85 1535.18 0.76 1530.96 C 0.74 1504.99 0.76 1479.03 0.75 1453.06 C 1.19 1396.72 1.07 1340.36 0.75 1284.02 C 0.72 1223.01 1.16 1161.97 4.99 1101.06 C 9.16 1032.39 18.44 963.96 34.12 896.94 C 53.19 815.00 81.51 735.19 118.71 659.72 C 152.53 590.90 193.70 525.74 240.64 465.12 Z" />
<path fill="#124a79" opacity="1.00" d=" M 1606.58 970.74 C 1655.99 907.98 1705.88 845.58 1755.34 782.85 C 1799.32 847.11 1832.30 918.82 1852.79 993.93 C 1874.62 1073.77 1882.98 1157.37 1876.35 1239.90 C 1870.53 1313.15 1852.80 1385.43 1824.11 1453.07 C 1777.87 1562.45 1702.89 1659.39 1609.03 1732.08 C 1557.51 1772.06 1500.39 1804.83 1439.80 1828.93 C 1370.08 1856.78 1295.79 1872.95 1220.85 1877.18 C 1139.30 1881.93 1057.10 1872.07 978.60 1849.64 C 968.75 1846.73 958.30 1844.46 949.99 1838.07 C 944.20 1833.77 940.55 1827.09 939.24 1820.08 C 937.31 1810.16 938.65 1800.02 938.51 1790.00 C 939.91 1734.01 938.90 1677.98 938.99 1621.97 C 938.60 1614.72 938.78 1607.47 938.75 1600.22 C 984.54 1614.02 1029.48 1630.65 1075.87 1642.46 C 1119.86 1653.91 1165.65 1658.37 1211.02 1655.40 C 1296.60 1650.01 1380.22 1620.23 1450.92 1571.90 C 1511.71 1530.38 1563.12 1474.54 1596.95 1408.98 C 1624.43 1356.35 1646.65 1300.05 1654.30 1240.85 C 1657.41 1217.45 1657.92 1193.75 1656.17 1170.23 C 1651.82 1101.50 1635.93 1033.17 1606.58 970.74 Z" />
<path fill="#124a79" opacity="1.00" d=" M 6204.50 1237.50 C 6241.66 1237.48 6278.81 1237.52 6315.97 1237.48 C 6316.04 1475.19 6315.98 1712.91 6316.00 1950.62 C 6287.91 1974.18 6255.61 1992.51 6221.37 2005.49 C 6179.51 2021.39 6134.84 2029.50 6090.13 2030.58 C 6050.05 2032.25 6009.38 2025.18 5972.97 2008.10 C 5938.60 1992.23 5908.63 1967.31 5886.17 1936.89 C 5862.87 1905.37 5848.87 1867.57 5843.56 1828.87 C 5839.44 1801.11 5840.33 1772.96 5841.03 1745.00 C 5841.87 1719.54 5843.54 1694.06 5847.60 1668.90 C 5850.03 1654.56 5853.12 1640.20 5858.75 1626.74 C 5873.56 1591.22 5897.31 1559.41 5927.26 1535.23 C 5958.88 1510.07 5997.32 1493.85 6037.13 1487.40 C 6062.58 1483.36 6088.60 1483.28 6114.17 1486.38 C 6146.11 1490.28 6177.49 1500.68 6204.50 1518.38 C 6204.50 1424.75 6204.49 1331.13 6204.50 1237.50 M 6027.40 1598.43 C 6011.04 1605.38 5996.33 1616.21 5984.73 1629.67 C 5971.44 1645.50 5963.84 1665.25 5959.15 1685.17 C 5953.24 1710.65 5951.69 1736.94 5952.00 1763.04 C 5952.21 1786.87 5954.18 1810.84 5959.94 1834.03 C 5964.51 1852.05 5971.60 1869.91 5983.70 1884.27 C 5995.40 1897.67 6009.96 1908.65 6026.26 1915.84 C 6043.71 1923.60 6062.97 1926.70 6082.01 1926.26 C 6124.72 1925.85 6168.96 1917.11 6204.54 1892.32 C 6204.46 1807.50 6204.49 1722.67 6204.53 1637.85 C 6188.76 1625.48 6172.44 1613.60 6154.64 1604.31 C 6132.57 1593.05 6107.51 1589.15 6082.97 1588.74 C 6064.05 1588.18 6044.87 1590.96 6027.40 1598.43 Z" />
<path fill="#124a79" opacity="1.00" d=" M 3292.64 1280.82 C 3341.51 1277.51 3391.43 1283.67 3437.03 1302.01 C 3469.79 1314.91 3500.15 1334.02 3525.61 1358.38 C 3553.79 1384.66 3573.81 1418.63 3587.31 1454.48 C 3603.48 1497.50 3611.22 1543.22 3614.95 1588.88 C 3618.61 1637.55 3618.38 1686.54 3613.74 1735.14 C 3609.25 1779.37 3600.72 1823.59 3583.82 1864.87 C 3576.15 1883.53 3566.68 1901.51 3555.09 1918.05 C 3535.82 1945.48 3510.34 1968.24 3482.06 1986.06 C 3445.76 2008.69 3404.30 2022.62 3361.94 2028.00 C 3320.28 2033.13 3277.61 2031.29 3236.80 2021.27 C 3197.53 2011.50 3159.98 1994.00 3128.21 1968.82 C 3113.39 1957.04 3099.53 1943.96 3087.81 1929.07 C 3065.84 1901.49 3050.78 1868.99 3040.39 1835.45 C 3025.91 1788.36 3019.99 1739.07 3018.04 1689.99 C 3016.45 1641.55 3017.72 1592.87 3024.84 1544.88 C 3030.85 1504.82 3040.94 1465.04 3058.57 1428.43 C 3066.16 1412.74 3075.21 1397.73 3085.84 1383.91 C 3107.24 1356.44 3134.91 1334.13 3165.30 1317.29 C 3204.33 1295.81 3248.25 1283.75 3292.64 1280.82 M 3295.62 1400.84 C 3285.48 1401.76 3275.41 1403.38 3265.53 1405.80 C 3232.97 1413.56 3202.79 1431.48 3181.09 1457.03 C 3170.61 1469.66 3163.19 1484.54 3157.58 1499.88 C 3149.73 1521.51 3145.17 1544.17 3142.17 1566.93 C 3138.77 1592.46 3137.50 1618.21 3137.06 1643.94 C 3136.78 1670.11 3137.50 1696.31 3139.82 1722.40 C 3142.02 1746.19 3145.50 1769.95 3151.93 1793.00 C 3157.42 1812.44 3164.94 1831.61 3176.86 1848.07 C 3197.39 1875.08 3227.45 1894.31 3260.06 1903.26 C 3283.08 1909.70 3307.20 1911.43 3331.01 1910.26 C 3351.87 1909.12 3372.70 1905.22 3392.13 1897.40 C 3408.31 1891.01 3423.37 1881.83 3436.56 1870.48 C 3446.80 1861.62 3456.18 1851.59 3463.21 1839.96 C 3474.39 1821.57 3481.25 1800.90 3486.13 1780.05 C 3496.46 1734.50 3498.10 1687.53 3497.74 1641.00 C 3496.63 1595.53 3493.43 1549.39 3479.26 1505.87 C 3473.45 1488.70 3465.69 1471.92 3454.17 1457.79 C 3441.72 1443.04 3426.53 1430.60 3409.61 1421.32 C 3375.08 1402.33 3334.41 1397.52 3295.62 1400.84 Z" />
<path fill="#124a79" opacity="1.00" d=" M 3846.15 1507.24 C 3890.22 1491.35 3937.20 1483.95 3984.00 1484.24 C 4023.73 1484.16 4063.49 1493.81 4098.55 1512.54 C 4132.45 1530.51 4161.42 1557.48 4182.26 1589.65 C 4203.21 1621.97 4214.91 1659.70 4218.72 1697.88 C 4220.21 1713.18 4220.84 1728.59 4220.28 1743.96 C 4220.20 1769.04 4219.09 1794.14 4216.61 1819.11 C 4214.26 1840.66 4211.08 1862.34 4203.85 1882.86 C 4191.02 1916.84 4169.73 1947.51 4142.70 1971.72 C 4116.26 1995.37 4084.21 2012.61 4050.00 2021.93 C 4027.57 2028.09 4004.26 2030.90 3981.02 2030.76 C 3937.55 2030.75 3893.18 2020.78 3856.53 1996.68 C 3856.49 2111.10 3856.47 2225.52 3856.53 2339.94 C 3819.35 2340.07 3782.18 2339.96 3745.00 2340.00 C 3744.99 2081.60 3745.02 1823.21 3744.98 1564.81 C 3774.65 1539.41 3809.42 1520.32 3846.15 1507.24 M 3857.56 1622.69 C 3855.80 1623.42 3856.64 1625.55 3856.48 1627.00 C 3856.59 1710.18 3856.38 1793.37 3856.58 1876.55 C 3878.22 1893.01 3900.35 1910.27 3926.79 1918.20 C 3947.51 1924.46 3969.37 1926.12 3990.92 1925.36 C 4012.92 1924.24 4034.69 1917.38 4052.91 1904.90 C 4065.89 1895.87 4077.80 1884.77 4085.86 1871.03 C 4094.67 1856.29 4099.86 1839.68 4103.24 1822.94 C 4107.75 1800.59 4108.92 1777.73 4109.01 1754.99 C 4108.63 1729.49 4106.84 1703.78 4100.22 1679.06 C 4095.38 1661.16 4087.87 1643.50 4075.37 1629.57 C 4064.55 1617.73 4051.53 1607.81 4036.98 1600.99 C 4018.99 1592.42 3998.85 1588.85 3979.00 1589.48 C 3936.68 1589.65 3892.99 1598.54 3857.56 1622.69 Z" />
<path fill="#124a79" opacity="1.00" d=" M 4417.63 1516.69 C 4450.79 1495.72 4489.95 1485.46 4528.97 1484.17 C 4553.31 1483.66 4577.90 1483.52 4601.86 1488.49 C 4635.75 1494.97 4668.09 1510.90 4692.57 1535.43 C 4719.78 1562.23 4738.57 1596.66 4749.89 1632.93 C 4763.15 1674.85 4765.21 1719.35 4763.98 1763.00 C 4763.47 1779.33 4762.29 1795.64 4760.81 1811.92 C 4647.62 1812.11 4534.42 1811.95 4421.23 1812.00 C 4422.69 1829.33 4429.15 1845.94 4438.44 1860.54 C 4446.97 1874.25 4458.15 1886.35 4471.43 1895.58 C 4486.28 1906.03 4503.50 1912.78 4521.18 1916.68 C 4542.43 1921.33 4564.34 1922.09 4586.00 1920.83 C 4627.77 1918.28 4668.75 1906.54 4706.29 1888.23 C 4712.56 1885.14 4718.62 1881.64 4724.50 1877.83 C 4724.55 1916.84 4724.40 1955.86 4724.58 1994.86 C 4668.97 2020.78 4607.10 2031.98 4545.93 2030.91 C 4502.73 2029.95 4459.72 2017.81 4422.84 1995.21 C 4393.32 1976.93 4367.63 1951.96 4350.22 1921.79 C 4330.54 1888.11 4320.43 1849.66 4315.91 1811.15 C 4312.31 1779.88 4312.00 1748.30 4314.18 1716.93 C 4317.20 1675.72 4325.27 1634.15 4343.99 1597.00 C 4360.24 1563.92 4386.54 1536.27 4417.63 1516.69 M 4524.02 1589.53 C 4504.87 1591.54 4486.03 1598.07 4470.42 1609.47 C 4454.67 1620.82 4442.09 1636.37 4433.85 1653.92 C 4425.79 1671.16 4421.65 1690.06 4420.39 1709.00 C 4497.76 1709.00 4575.13 1709.00 4652.49 1709.00 C 4652.59 1697.63 4652.72 1686.18 4650.43 1674.99 C 4645.42 1647.35 4629.08 1622.18 4606.47 1605.66 C 4591.09 1594.42 4572.01 1588.41 4552.99 1588.74 C 4543.32 1588.87 4533.62 1588.33 4524.02 1589.53 Z" />
<path fill="#124a79" opacity="1.00" d=" M 4978.79 1498.77 C 5014.56 1488.49 5051.79 1483.64 5088.98 1483.49 C 5130.33 1483.55 5171.55 1489.64 5211.48 1500.30 C 5211.54 1537.03 5211.46 1573.76 5211.52 1610.50 C 5178.18 1598.77 5143.33 1590.90 5107.98 1589.09 C 5070.47 1586.94 5032.12 1592.37 4997.84 1608.21 C 4997.66 1745.62 4997.77 1883.03 4997.78 2020.44 C 4960.69 2020.58 4923.60 2020.46 4886.51 2020.50 C 4886.49 1860.92 4886.48 1701.34 4886.52 1541.75 C 4914.44 1522.13 4946.03 1508.09 4978.79 1498.77 Z" />
<path fill="#124a79" opacity="1.00" d=" M 5437.94 1485.52 C 5469.61 1483.82 5501.50 1482.72 5533.09 1486.33 C 5560.59 1489.53 5587.88 1496.22 5612.98 1508.09 C 5655.79 1528.01 5691.09 1564.29 5708.33 1608.41 C 5718.33 1634.05 5723.61 1661.48 5724.48 1688.97 C 5725.08 1719.31 5724.59 1749.66 5724.75 1780.00 C 5724.78 1841.58 5724.70 1903.16 5724.79 1964.73 C 5689.77 1993.71 5647.20 2012.76 5602.92 2022.32 C 5573.75 2028.71 5543.83 2031.25 5514.00 2031.26 C 5484.69 2031.07 5455.25 2027.86 5427.00 2019.85 C 5400.16 2012.34 5374.48 2000.45 5351.75 1984.27 C 5331.12 1969.87 5312.91 1951.63 5300.25 1929.77 C 5286.46 1906.70 5282.06 1879.45 5280.79 1852.98 C 5280.03 1834.96 5280.51 1816.84 5283.08 1798.97 C 5285.43 1782.83 5289.60 1766.77 5297.34 1752.33 C 5309.44 1729.63 5327.39 1710.39 5347.97 1695.13 C 5372.76 1676.88 5401.23 1663.84 5430.98 1656.07 C 5459.01 1648.74 5488.07 1645.65 5517.02 1646.00 C 5546.42 1645.98 5575.82 1646.04 5605.23 1645.97 C 5600.64 1634.19 5593.72 1623.22 5584.34 1614.69 C 5572.28 1603.48 5556.68 1597.08 5541.04 1592.68 C 5513.07 1584.81 5483.73 1585.92 5455.03 1587.23 C 5410.41 1589.55 5365.89 1596.55 5323.24 1610.01 C 5323.26 1574.15 5323.23 1538.29 5323.26 1502.42 C 5360.83 1493.15 5399.33 1487.92 5437.94 1485.52 M 5464.91 1751.43 C 5452.38 1753.21 5439.77 1755.75 5428.27 1761.18 C 5415.61 1767.23 5405.48 1778.04 5399.90 1790.87 C 5392.71 1807.17 5391.37 1825.37 5392.17 1842.96 C 5393.13 1860.79 5397.43 1879.17 5408.52 1893.54 C 5416.32 1904.04 5427.66 1911.36 5439.66 1916.26 C 5456.85 1923.42 5475.43 1926.53 5493.92 1927.90 C 5507.21 1928.74 5520.60 1928.98 5533.89 1927.73 C 5561.25 1925.10 5587.89 1917.30 5613.26 1906.88 C 5613.23 1854.09 5613.26 1801.30 5613.24 1748.51 C 5581.48 1748.49 5549.72 1748.51 5517.96 1748.50 C 5500.23 1748.39 5482.47 1749.05 5464.91 1751.43 Z" />
<path fill="#124a79" opacity="1.00" d=" M 6654.58 1484.80 C 6696.91 1481.18 6740.27 1486.36 6779.86 1502.13 C 6799.83 1509.88 6818.89 1520.11 6836.11 1532.89 C 6865.45 1555.05 6889.80 1584.00 6906.00 1617.06 C 6913.01 1631.13 6918.04 1646.13 6921.28 1661.51 C 6926.65 1686.30 6928.60 1711.70 6929.41 1737.01 C 6930.14 1763.04 6929.58 1789.15 6927.09 1815.09 C 6924.83 1837.25 6921.10 1859.46 6913.40 1880.44 C 6900.48 1914.11 6878.88 1944.12 6852.25 1968.30 C 6825.97 1992.29 6794.18 2010.22 6759.97 2020.05 C 6737.62 2026.59 6714.39 2029.87 6691.15 2030.58 C 6647.07 2032.30 6602.48 2023.55 6562.79 2004.15 C 6515.39 1981.30 6475.99 1942.03 6453.90 1894.19 C 6444.92 1875.61 6439.95 1855.39 6436.85 1835.08 C 6433.25 1811.58 6432.05 1787.78 6431.74 1764.04 C 6431.59 1737.37 6432.51 1710.63 6436.14 1684.18 C 6438.62 1666.83 6442.14 1649.52 6448.41 1633.11 C 6462.19 1597.83 6485.08 1566.24 6514.06 1541.87 C 6542.36 1517.74 6576.34 1500.31 6612.52 1491.62 C 6626.31 1488.21 6640.40 1486.00 6654.58 1484.80 M 6662.59 1588.87 C 6635.90 1591.44 6609.82 1601.18 6588.55 1617.58 C 6577.82 1625.48 6568.92 1635.69 6562.18 1647.15 C 6552.88 1662.75 6547.38 1680.32 6543.88 1698.05 C 6539.19 1722.73 6538.13 1747.99 6539.09 1773.05 C 6539.99 1794.96 6542.74 1816.94 6549.29 1837.93 C 6554.10 1853.29 6561.18 1868.12 6571.45 1880.61 C 6580.15 1891.40 6591.47 1899.74 6603.32 1906.79 C 6622.65 1918.04 6644.64 1924.41 6666.92 1926.00 C 6689.77 1927.65 6713.14 1925.48 6734.85 1917.90 C 6763.46 1907.74 6789.64 1887.90 6803.28 1860.31 C 6813.73 1839.74 6818.63 1816.85 6821.09 1794.06 C 6823.47 1769.97 6823.50 1745.67 6821.20 1721.58 C 6819.05 1700.82 6814.90 1680.05 6806.43 1660.89 C 6800.09 1646.49 6790.99 1633.16 6779.06 1622.83 C 6764.43 1609.68 6746.80 1599.96 6727.95 1594.41 C 6706.81 1588.21 6684.45 1586.77 6662.59 1588.87 Z" />
<path fill="#124a79" opacity="1.00" d=" M 7145.43 1496.63 C 7194.07 1483.82 7245.07 1480.62 7295.03 1486.10 C 7320.00 1488.79 7344.75 1493.55 7369.03 1500.00 C 7371.08 1500.08 7369.80 1502.68 7370.28 1503.98 C 7370.21 1539.47 7370.26 1574.96 7370.25 1610.46 C 7327.30 1595.32 7281.60 1586.67 7235.96 1589.10 C 7208.69 1590.57 7181.61 1596.76 7156.78 1608.21 C 7156.69 1745.65 7156.82 1883.08 7156.72 2020.52 C 7119.64 2020.48 7082.57 2020.51 7045.51 2020.50 C 7045.49 1860.89 7045.50 1701.28 7045.50 1541.67 C 7075.60 1520.54 7109.93 1505.91 7145.43 1496.63 Z" />
<path fill="#124a79" opacity="1.00" d=" M 7482.04 1502.38 C 7526.56 1491.53 7572.27 1486.08 7618.02 1484.50 C 7644.33 1483.62 7670.79 1483.41 7696.95 1486.96 C 7735.03 1491.88 7772.84 1504.24 7804.01 1527.14 C 7831.62 1547.52 7854.07 1575.29 7866.73 1607.30 C 7878.53 1636.98 7883.84 1669.08 7883.50 1700.97 C 7883.53 1788.90 7883.43 1876.83 7883.55 1964.77 C 7854.85 1988.53 7820.96 2005.70 7785.30 2016.26 C 7759.32 2024.00 7732.41 2028.35 7705.39 2030.19 C 7661.66 2033.13 7616.95 2030.34 7575.09 2016.57 C 7541.65 2005.58 7510.26 1987.61 7484.98 1963.01 C 7472.41 1950.48 7461.62 1936.05 7453.90 1920.03 C 7444.55 1899.97 7441.04 1877.75 7439.79 1855.82 C 7438.61 1831.88 7439.42 1807.63 7444.68 1784.17 C 7447.85 1769.75 7453.34 1755.83 7461.36 1743.41 C 7480.45 1712.81 7509.75 1689.72 7541.84 1673.92 C 7579.93 1654.99 7622.65 1646.92 7664.96 1645.99 C 7698.00 1646.01 7731.03 1646.00 7764.08 1646.00 C 7758.13 1630.40 7747.72 1616.36 7733.66 1607.21 C 7718.69 1597.49 7701.27 1592.24 7683.84 1589.14 C 7659.44 1584.93 7634.57 1586.32 7609.98 1587.45 C 7566.64 1589.95 7523.45 1596.99 7482.00 1610.02 C 7482.02 1574.14 7481.94 1538.26 7482.04 1502.38 M 7626.95 1751.00 C 7609.70 1753.40 7591.52 1756.52 7577.27 1767.23 C 7562.50 1778.10 7554.81 1796.05 7552.28 1813.77 C 7549.57 1833.30 7550.20 1853.65 7556.36 1872.50 C 7561.34 1888.03 7571.88 1901.79 7586.02 1910.05 C 7603.80 1920.40 7624.27 1925.03 7644.57 1927.19 C 7666.24 1929.31 7688.26 1929.30 7709.77 1925.44 C 7731.14 1921.72 7751.96 1915.17 7772.01 1906.91 C 7771.99 1854.11 7772.00 1801.31 7772.00 1748.51 C 7749.66 1748.49 7727.33 1748.50 7705.01 1748.50 C 7678.97 1748.62 7652.84 1747.72 7626.95 1751.00 Z" />
<path fill="#124a79" opacity="1.00" d=" M 8072.73 1514.77 C 8103.84 1493.62 8141.78 1484.79 8178.99 1483.69 C 8239.48 1481.44 8299.26 1498.77 8352.97 1525.69 C 8334.79 1556.40 8316.75 1587.18 8298.63 1617.93 C 8284.45 1608.83 8268.70 1602.43 8252.62 1597.63 C 8229.14 1590.72 8204.51 1587.83 8180.09 1588.93 C 8169.24 1589.62 8158.20 1591.33 8148.44 1596.32 C 8140.88 1600.14 8134.46 1606.60 8131.81 1614.75 C 8129.49 1621.89 8128.52 1630.07 8131.78 1637.10 C 8135.24 1644.80 8141.49 1650.83 8148.00 1656.05 C 8162.00 1667.26 8178.34 1674.93 8194.31 1682.89 C 8215.61 1693.13 8237.24 1702.68 8258.94 1712.06 C 8293.84 1727.05 8328.23 1745.55 8354.82 1773.18 C 8378.60 1797.36 8392.86 1830.26 8395.09 1864.04 C 8396.92 1887.21 8394.14 1911.08 8384.38 1932.35 C 8377.26 1948.18 8366.91 1962.45 8354.55 1974.60 C 8340.26 1988.84 8323.55 2000.66 8305.32 2009.31 C 8268.92 2026.62 8227.95 2031.99 8187.99 2031.11 C 8143.60 2029.94 8100.11 2016.65 8061.05 1995.92 C 8044.66 1987.30 8028.99 1977.37 8013.89 1966.67 C 8036.23 1938.05 8058.59 1909.45 8080.95 1880.85 C 8099.23 1890.02 8117.91 1898.41 8137.08 1905.56 C 8154.61 1911.95 8172.61 1917.41 8191.17 1919.82 C 8203.90 1921.51 8216.85 1921.17 8229.58 1919.43 C 8241.42 1917.64 8253.80 1914.18 8262.56 1905.54 C 8273.10 1894.87 8274.29 1877.37 8267.67 1864.32 C 8260.41 1849.86 8247.19 1839.69 8233.98 1830.98 C 8216.60 1819.59 8198.28 1809.72 8179.94 1800.02 C 8160.62 1789.88 8141.16 1780.04 8121.65 1770.32 C 8103.15 1761.19 8084.68 1751.89 8067.47 1740.49 C 8038.27 1722.16 8015.27 1692.43 8009.08 1658.09 C 8002.87 1622.75 8010.62 1584.82 8031.41 1555.41 C 8042.60 1539.54 8056.70 1525.73 8072.73 1514.77 Z" />
</g>
</svg>
